<?xml version="1.0" encoding="UTF-8" standalone="no"?>
<!-- Created with Inkscape (http://www.inkscape.org/) -->

<svg
   xmlns:dc="http://purl.org/dc/elements/1.1/"
   xmlns:cc="http://creativecommons.org/ns#"
   xmlns:rdf="http://www.w3.org/1999/02/22-rdf-syntax-ns#"
   xmlns:svg="http://www.w3.org/2000/svg"
   xmlns="http://www.w3.org/2000/svg"
   xmlns:sodipodi="http://sodipodi.sourceforge.net/DTD/sodipodi-0.dtd"
   xmlns:inkscape="http://www.inkscape.org/namespaces/inkscape"
   width="19"
   height="22"
   id="svg2994"
   version="1.1"
   inkscape:version="0.48.5 r10040"
   sodipodi:docname="Новый документ 2">
  <defs
     id="defs2996" />
  <sodipodi:namedview
     id="base"
     pagecolor="#ffffff"
     bordercolor="#666666"
     borderopacity="1.0"
     inkscape:pageopacity="0.0"
     inkscape:pageshadow="2"
     inkscape:zoom="1"
     inkscape:cx="72.802358"
     inkscape:cy="19.936815"
     inkscape:document-units="px"
     inkscape:current-layer="layer1"
     showgrid="false"
     inkscape:window-width="1440"
     inkscape:window-height="834"
     inkscape:window-x="0"
     inkscape:window-y="27"
     inkscape:window-maximized="1" />
  <metadata
     id="metadata2999">
    <rdf:RDF>
      <cc:Work
         rdf:about="">
        <dc:format>image/svg+xml</dc:format>
        <dc:type
           rdf:resource="http://purl.org/dc/dcmitype/StillImage" />
        <dc:title></dc:title>
      </cc:Work>
    </rdf:RDF>
  </metadata>
  <g
     inkscape:label="Layer 1"
     inkscape:groupmode="layer"
     id="layer1"
     transform="translate(0,-1030.3622)">
    <path
       inkscape:connector-curvature="0"
       style="fill:#000000;fill-opacity:1;fill-rule:nonzero;stroke:none"
       id="path14"
       d="m 3.2228203,1034.3618 h 2.772874 v 2.7728 h -2.772874 v -2.7728 z m 3.3928954,0 h 3.0656621 v 2.7728 H 6.6157157 v -2.7728 z m -3.3928954,3.3927 h 2.772874 v 3.0656 h -2.772874 v -3.0656 z m 3.3928954,0 h 3.0656621 v 3.0656 H 6.6157157 v -3.0656 z m -3.3928954,3.6858 h 2.772874 v 2.7729 h -2.772874 v -2.7729 z m 7.0785777,-7.0785 h 3.082887 v 2.7728 h -3.082887 v -2.7728 z m -3.6856823,7.0785 h 3.0656621 v 2.7729 H 6.6157157 v -2.7729 z m 7.3713683,-7.0785 h 2.772872 v 2.7728 h -2.772872 v -2.7728 z m -3.685686,3.3927 h 3.082887 v 3.0656 h -3.082887 v -3.0656 z m -3.3756714,8.3016 v 2.7729 q 0,0.1203 -0.1033376,0.2065 -0.1033365,0.085 -0.206674,0.1024 H 5.9956943 q -0.1205597,0 -0.2066737,-0.1024 -0.086114,-0.1035 -0.1033376,-0.2065 v -2.7729 q 0,-0.1208 0.1033376,-0.2239 0.1033376,-0.1035 0.2066737,-0.085 h 0.6200214 q 0.1205598,0 0.2066742,0.085 0.086114,0.085 0.1033365,0.2239 z m 7.0613574,-8.3016 h 2.772872 v 3.0656 h -2.772872 v -3.0656 z m -3.685686,3.6858 h 3.082887 v 2.7729 h -3.082887 v -2.7729 z m 3.685686,0 h 2.772872 v 2.7729 h -2.772872 v -2.7729 z m 0.310009,4.6158 v 2.7729 q 0,0.1203 -0.0861,0.2065 -0.0861,0.085 -0.223898,0.1024 h -0.602799 q -0.137781,0 -0.223895,-0.1024 -0.0861,-0.1035 -0.0861,-0.2065 v -2.7729 q 0,-0.1208 0.0861,-0.2239 0.0861,-0.1035 0.223895,-0.085 h 0.602798 q 0.137782,0 0.223898,0.085 0.0861,0.085 0.0861,0.2239 z M 18,1046.6759 v -12.3141 q 0,-0.4998 -0.378901,-0.8614 -0.378904,-0.3617 -0.861143,-0.3617 H 3.2228203 q -0.4994619,0 -0.8611409,0.3617 Q 2,1033.862 2,1034.3618 v 12.3141 q 0,0.4994 0.3616794,0.8611 0.361679,0.3616 0.8611409,0.3616 h 1.2400432 v 0.9304 q 0,0.6198 0.447793,1.0849 0.4477933,0.4648 1.0850378,0.4479 h 0.6200214 q 0.6372445,0 1.0850378,-0.4479 0.4477934,-0.4478 0.4477934,-1.0849 v -0.9304 h 3.6856821 v 0.9304 q 0,0.6198 0.465018,1.0849 0.465014,0.4648 1.085038,0.4479 h 0.602799 q 0.637241,0 1.085039,-0.4479 0.447792,-0.4478 0.465014,-1.0849 v -0.9304 h 1.222819 q 0.499464,0 0.861143,-0.3616 0.36168,-0.3617 0.378901,-0.8611 z" />
  </g>
</svg>
