<?xml version="1.0" encoding="UTF-8" standalone="no"?>
<!-- Created with Inkscape (http://www.inkscape.org/) -->

<svg
   xmlns:dc="http://purl.org/dc/elements/1.1/"
   xmlns:cc="http://creativecommons.org/ns#"
   xmlns:rdf="http://www.w3.org/1999/02/22-rdf-syntax-ns#"
   xmlns:svg="http://www.w3.org/2000/svg"
   xmlns="http://www.w3.org/2000/svg"
   xmlns:sodipodi="http://sodipodi.sourceforge.net/DTD/sodipodi-0.dtd"
   xmlns:inkscape="http://www.inkscape.org/namespaces/inkscape"
   width="16"
   height="16"
   id="svg2994"
   version="1.1"
   inkscape:version="0.48.5 r10040"
   sodipodi:docname="Новый документ 2">
  <defs
     id="defs2996" />
  <sodipodi:namedview
     id="base"
     pagecolor="#ffffff"
     bordercolor="#666666"
     borderopacity="1.0"
     inkscape:pageopacity="0.0"
     inkscape:pageshadow="2"
     inkscape:zoom="4"
     inkscape:cx="130.21183"
     inkscape:cy="46.758241"
     inkscape:document-units="px"
     inkscape:current-layer="layer1"
     showgrid="false"
     inkscape:window-width="1440"
     inkscape:window-height="834"
     inkscape:window-x="0"
     inkscape:window-y="27"
     inkscape:window-maximized="1" />
  <metadata
     id="metadata2999">
    <rdf:RDF>
      <cc:Work
         rdf:about="">
        <dc:format>image/svg+xml</dc:format>
        <dc:type
           rdf:resource="http://purl.org/dc/dcmitype/StillImage" />
        <dc:title></dc:title>
      </cc:Work>
    </rdf:RDF>
  </metadata>
  <g
     inkscape:label="Layer 1"
     inkscape:groupmode="layer"
     id="layer1"
     transform="translate(0,-1036.3622)">
    <path
       inkscape:connector-curvature="0"
       style="fill:#000000;fill-opacity:1;fill-rule:nonzero;stroke:none"
       id="path14"
       d="m 2,1039.8666 q 0,0.6297 0.4548104,1.0845 l 3.4110787,3.4111 -3.4110787,3.4286 Q 2,1048.2281 2,1048.8578 q 0,0.6298 0.4548104,1.0671 0.4548105,0.4373 1.0670555,0.4373 0.612245,0 1.0670555,-0.4373 l 3.4285712,-3.4286 3.4110784,3.4286 q 0.437318,0.4373 1.067056,0.4373 0.629737,0 1.067055,-0.4373 Q 14,1049.4876 14,1048.8578 q 0,-0.6297 -0.437318,-1.067 l -3.411078,-3.4286 3.411078,-3.4111 Q 14,1040.4963 14,1039.8666 q 0,-0.6298 -0.437318,-1.0671 -0.437318,-0.4373 -1.067055,-0.4373 -0.629738,0 -1.067056,0.4373 l -3.4110784,3.4111 -3.4285712,-3.4111 q -0.4373179,-0.4373 -1.0670555,-0.4373 -0.6297377,0 -1.0670555,0.4373 Q 2,1039.2543 2,1039.8666 z" />
  </g>
</svg>
