<?xml version="1.0" encoding="UTF-8" standalone="no"?>
<!-- Created with Inkscape (http://www.inkscape.org/) -->

<svg
   xmlns:dc="http://purl.org/dc/elements/1.1/"
   xmlns:cc="http://creativecommons.org/ns#"
   xmlns:rdf="http://www.w3.org/1999/02/22-rdf-syntax-ns#"
   xmlns:svg="http://www.w3.org/2000/svg"
   xmlns="http://www.w3.org/2000/svg"
   xmlns:sodipodi="http://sodipodi.sourceforge.net/DTD/sodipodi-0.dtd"
   xmlns:inkscape="http://www.inkscape.org/namespaces/inkscape"
   width="18"
   height="16"
   id="svg2994"
   version="1.1"
   inkscape:version="0.48.5 r10040"
   sodipodi:docname="close.svg">
  <defs
     id="defs2996" />
  <sodipodi:namedview
     id="base"
     pagecolor="#ffffff"
     bordercolor="#666666"
     borderopacity="1.0"
     inkscape:pageopacity="0.0"
     inkscape:pageshadow="2"
     inkscape:zoom="1"
     inkscape:cx="34.055681"
     inkscape:cy="3.755964"
     inkscape:document-units="px"
     inkscape:current-layer="layer1"
     showgrid="false"
     inkscape:window-width="1440"
     inkscape:window-height="834"
     inkscape:window-x="0"
     inkscape:window-y="27"
     inkscape:window-maximized="1" />
  <metadata
     id="metadata2999">
    <rdf:RDF>
      <cc:Work
         rdf:about="">
        <dc:format>image/svg+xml</dc:format>
        <dc:type
           rdf:resource="http://purl.org/dc/dcmitype/StillImage" />
        <dc:title></dc:title>
      </cc:Work>
    </rdf:RDF>
  </metadata>
  <g
     inkscape:label="Layer 1"
     inkscape:groupmode="layer"
     id="layer1"
     transform="translate(0,-1036.3622)">
    <path
       inkscape:connector-curvature="0"
       style="fill:#000000;fill-opacity:1;fill-rule:nonzero;stroke:none"
       id="path14"
       d="m 16,1040.0863 q 0,-0.4647 -0.316742,-0.8025 l -1.604826,-1.6048 q -0.337859,-0.3168 -0.802414,-0.3168 -0.464555,0 -0.802413,0.3168 l -3.463047,3.4841 -3.4630467,-3.4841 q -0.3378582,-0.3168 -0.8024134,-0.3168 -0.464555,0 -0.8024131,0.3168 l -1.6048267,1.6048 Q 2,1039.6216 2,1040.0863 q 0,0.4644 0.3378582,0.8023 l 3.4630468,3.463 -3.4630468,3.4631 Q 2,1048.1525 2,1048.6172 q 0,0.4645 0.3378582,0.8023 l 1.6048266,1.6049 q 0.3378582,0.3378 0.8024131,0.3378 0.4645552,0 0.8024134,-0.3378 l 3.4630467,-3.4631 3.463047,3.4631 q 0.337858,0.3378 0.802413,0.3378 0.464555,0 0.802414,-0.3378 l 1.604826,-1.6049 Q 16,1049.1028 16,1048.6172 q 0,-0.4859 -0.316742,-0.8025 l -3.463047,-3.4631 3.463047,-3.463 Q 16,1040.5719 16,1040.0863 z" />
  </g>
</svg>
